<svg id="Calque_1" data-name="Calque 1" xmlns="http://www.w3.org/2000/svg" viewBox="0 0 147 73"><defs><style>.cls-1{fill:#fff;}.cls-2{fill:#cdcdcd;}.cls-3{fill:#b7b7b7;}</style></defs><path class="cls-1" d="M51.16,17.23a3.87,3.87,0,0,1-1.89,2.93c-1.51,1-3.05,2-4.5,3.08C42.5,25,42.51,25,42.8,27.79a18.7,18.7,0,0,1-2.34,11.55c-.05.09-.1.18-.16.27s-.14.29-.32.26-.2-.21-.22-.34c-.1-.48-.18-1-.28-1.43a13.43,13.43,0,0,0-.91-2.84c-.51-1.11-.87-1.31-2.08-1.14a26.8,26.8,0,0,1-3.8.19,1.21,1.21,0,0,1-1.31-.94c-.09-.32-.23-.64-.31-1-.34-1.32-.25-1.56.88-2.3a8.94,8.94,0,0,0,3.17-3.87c.06-.13.18-.28.08-.41s-.31-.08-.47,0L33,26.21a1,1,0,0,0-.68.51c-2,3.86-5.79,4.52-9.6,3.62a12.16,12.16,0,0,1-4.38-2.11,1.05,1.05,0,0,1,.81.1,17.37,17.37,0,0,0,4.1.78c1.06.06,1.22-.06,1.29-1.11a26.83,26.83,0,0,1,1.93-9.19,1.34,1.34,0,0,0,0-.26c-.44.13-.63.5-.89.77s-.4.24-.5-.13a2.64,2.64,0,0,1,0-1.62c.51-1.36,1-2.72,1.54-4.09a2.31,2.31,0,0,1,1.22-1.31c.81-.37,1.63-.71,2.42-1.13a4.91,4.91,0,0,1,3.92-.26c2.52.76,2.53.73,3.6,3.12l.54,1.2.17,0c-.18-1.06-.29-2.14-.55-3.18-.14-.52-.8-.65-1.2-1-.22-.18-.65-.27-.62-.57s.48-.35.76-.46a21.34,21.34,0,0,1,5.61-1.55,5.39,5.39,0,0,1,2.83.49A16.09,16.09,0,0,1,49,11.21c.22.18.41.44.75.42.57.12.71.65.92,1.06a9.32,9.32,0,0,1,.87,2.69C51.48,16,51.22,16.6,51.16,17.23Z"/><path class="cls-1" d="M73.35,30.3a26.86,26.86,0,0,1,4.49-1.73,4.31,4.31,0,0,1,1.38-.16,1.26,1.26,0,0,1,1.21,1.77A9.05,9.05,0,0,1,79,32.86a39.47,39.47,0,0,1-6.31,6.48,25.08,25.08,0,0,0-2,1.82,7.31,7.31,0,0,0-2.09,6.32c.27,1.79.38,3.61.54,5.42a2.06,2.06,0,0,1-.79,1.78,18.47,18.47,0,0,1-3.21,2.37,2.2,2.2,0,0,0-1.23,2.11,15.76,15.76,0,0,0,.26,2.65c.1.52-.06.76-.61.74a1.69,1.69,0,0,0-1.82,1.34A10.9,10.9,0,0,1,61.28,65,7.43,7.43,0,0,1,56,69.75c-1.4.34-2.77.79-4.14,1.21a.74.74,0,0,1-1-.43c-.58-1.17-1.14-2.35-1.62-3.57a1,1,0,0,1,.29-1,78.78,78.78,0,0,0,8-12.23C59,51,60.32,48.16,61.71,45.38A51.59,51.59,0,0,1,69,34.17a21.94,21.94,0,0,1,3.06-3.11C72.48,30.75,73,30.62,73.35,30.3Z"/><path class="cls-1" d="M46.07,59.84c-.44-.51-.88-1-1.31-1.55A4.25,4.25,0,0,1,44,54.18a15.59,15.59,0,0,1,1.15-2.88,3.21,3.21,0,0,0,0-3.15c-.79-1.47-1.56-2.95-2.35-4.42-.16-.51.15-.89.4-1.27.64-1,1.43-1.83,2.14-2.75a56.92,56.92,0,0,1,4.95-5.57,37,37,0,0,1,13.59-8.83c1-.35,2-.64,2.95-.93a1.12,1.12,0,0,1,1,.07c.39.38.81.73,1.18,1.13a3.33,3.33,0,0,0,2.61,1.18c.27.33,0,.5-.23.66a11.75,11.75,0,0,1-1.13.69A32.83,32.83,0,0,0,60.3,37.3a69.76,69.76,0,0,0-4.52,7.26c-2.61,4.7-5.1,9.48-8.17,13.93-.27.4-.57.78-.85,1.18S46.37,60.05,46.07,59.84Z"/><path class="cls-1" d="M51.24,15.35a13.32,13.32,0,0,0-1.5-3.72c.34-.25.65-.54,1-.76a3,3,0,0,1,3.52,0A8.38,8.38,0,0,0,60,12.09c1.13-.1,2.28-.11,3.42-.14.26,0,.59,0,.73.24s-.09.52-.23.74a7.9,7.9,0,0,1-1.35,1.59,1.58,1.58,0,0,0-.46,1.84,3.92,3.92,0,0,0,1.54,2.1,12.26,12.26,0,0,1,1.93,1.44,3.28,3.28,0,0,1,1.1,2c0,.49-.32.62-.68.76-2.1.79-4.21,1.52-6.24,2.46a64.64,64.64,0,0,0-13,7.7,39.61,39.61,0,0,0-2.91,2.73c-.21.2-.44.53-.79.18a15.78,15.78,0,0,0,.08-8.93,2.38,2.38,0,0,1,1-2.62c1.23-1,2.55-1.88,3.85-2.77.56-.38,1.1-.79,1.68-1.15a3.57,3.57,0,0,0,1.76-3.53A2.45,2.45,0,0,1,51.24,15.35Z"/><path class="cls-1" d="M46.07,59.84c.29-.05.4-.29.54-.49A108.66,108.66,0,0,0,53.5,48,100.21,100.21,0,0,1,60,37.18a33.89,33.89,0,0,1,10.91-9.86c.26-.14.54-.26.66-.56.55.06.73.42.69.92s-.15,1.3-.19,1.94c0,.9.1,1,1,.76l.3-.08a7.17,7.17,0,0,1-1.25,1.15,40.61,40.61,0,0,0-6.73,8.12,91.88,91.88,0,0,0-5.13,9.53A89.27,89.27,0,0,1,49.7,66.21a2,2,0,0,0-.47.75c-.58-.85-1.51-1.41-2-2.38a7.51,7.51,0,0,1-.77-3.17A2.71,2.71,0,0,0,46.07,59.84Z"/><path class="cls-1" d="M43,35.74a1.1,1.1,0,0,0,.61-.42,41.76,41.76,0,0,1,10.41-7.68A72.93,72.93,0,0,1,66,22.33a1.16,1.16,0,0,0,.68-.42,7.1,7.1,0,0,0,1.14,2.54A35.68,35.68,0,0,0,52.46,32.5a60.85,60.85,0,0,0-7.53,8.19,18,18,0,0,0-2.16,3l-1.21-1.61A2.59,2.59,0,0,1,41.32,40,19.87,19.87,0,0,1,43,35.74Z"/><path class="cls-1" d="M112.17,35.36q0-3.42,0-6.84c0-.77.07-.83.85-.8.1,0,.21,0,.31,0,1.41-.09,1.34-.09,1.34,1.39,0,1.12,0,2.24,0,3.36,0,.68.16.85.86.85,2,0,3.89,0,5.84,0,.61,0,.83-.24.82-.83,0-1.29,0-2.58,0-3.87,0-.88.06-.95.92-.92h.19c1.39,0,1.39,0,1.39,1.45V42c0,.91-.07,1-1,.94a2.18,2.18,0,0,0-.25,0c-1.46.17-1.3-.23-1.27-1.34.06-1.82,0-3.63,0-5.45,0-.4-.16-.56-.56-.56l-6.22,0c-.67,0-.72.42-.71.93,0,1.82,0,3.64,0,5.45,0,1-.08,1.06-1.06,1h-.12c-1.33,0-1.33,0-1.33-1.4Z"/><path class="cls-1" d="M24.42,9.64a9.1,9.1,0,0,1,3.67,1c.17.08.39.15.41.36s-.21.29-.37.37a5.3,5.3,0,0,0-2.61,3.13c-.45,1.2-.88,2.42-1.36,3.62a1.19,1.19,0,0,0,.19,1.34,1.73,1.73,0,0,1,.33,1.73A16.75,16.75,0,0,0,24,24.91c0,.16,0,.39-.18.44s-.27-.17-.37-.29a26.25,26.25,0,0,0-2.57-2.8A7.19,7.19,0,0,0,19.11,21a2.73,2.73,0,0,1-1.36-1.53,13.23,13.23,0,0,1-.6-2.13,1.29,1.29,0,0,1,.14-.86,21,21,0,0,1,2.9-4.89A5.09,5.09,0,0,1,24.42,9.64Z"/><path class="cls-1" d="M128.1,35.33V28.55c0-.75.14-.87.9-.86,2.28,0,4.56,0,6.84,0,.53,0,.84.09.85.71,0,1.11-.1,1.38-.82,1.39-1.45,0-2.91,0-4.37,0-.86,0-.93.07-.92.94,0,.66,0,1.31,0,2s.08.85.82.85h4.37c.79,0,.9.1.91.78,0,1.2-.11,1.42-.92,1.43-1.45,0-2.91,0-4.37,0-.59,0-.84.19-.82.81,0,1.1,0,2.19,0,3.29,0,.75.08.83.85.82h4.31c.5,0,.93,0,.95.69,0,1.21-.11,1.54-.89,1.55-2.34,0-4.69,0-7,0-.59,0-.68-.36-.67-.84Z"/><path class="cls-1" d="M104.24,43.27A4.7,4.7,0,0,1,100,41c-.55-.87-.41-1.32.56-1.69a3.39,3.39,0,0,0,.41-.15c.4-.21.61-.11.84.3a3,3,0,0,0,3.64,1.41,2.06,2.06,0,0,0,.83-3.47,5.35,5.35,0,0,0-1.58-1,22.67,22.67,0,0,1-2.56-1.4,4,4,0,0,1,1.51-7.55,5.12,5.12,0,0,1,4.89,1.44c.54.57.49.89-.17,1.31-.18.11-.38.18-.55.3a.78.78,0,0,1-1.2-.19,2.3,2.3,0,0,0-2.7-.69,1.75,1.75,0,0,0-.82,2.9,5.18,5.18,0,0,0,1.79,1.27,24.71,24.71,0,0,1,2.7,1.41,3.84,3.84,0,0,1,1.92,3.8,4.19,4.19,0,0,1-2.56,3.78A5.91,5.91,0,0,1,104.24,43.27Z"/><path class="cls-1" d="M122,55.09c0,.78.08,1.56.1,2.34s-.59.41-.94.47-.62-.08-.56-.53a27,27,0,0,0,.07-3.48,10.12,10.12,0,0,1,.15-1.83A4.46,4.46,0,0,1,124,48.55a4.41,4.41,0,0,1,4.64,1c.91.85.9.86,1.84,0a4.75,4.75,0,0,1,8,3.44c.06,1.48-.09,3,.06,4.44.06.52-.36.45-.64.44s-.86.14-.81-.49a22.57,22.57,0,0,0,.09-2.47c0-.7,0-1.39-.07-2.09a3.3,3.3,0,0,0-3.21-3.14,3.36,3.36,0,0,0-3.55,3,25.46,25.46,0,0,0,0,4.62c.06.63-.3.6-.68.61s-.95,0-.88-.61c.14-1.4,0-2.79.05-4.18a3.38,3.38,0,1,0-6.75,0v2Z"/><path class="cls-1" d="M125.22,18.9c-.48.11-.81-.13-1.15-.61a3.18,3.18,0,0,0-3.29-1.16,3.48,3.48,0,0,0-2.85,2.5,3.68,3.68,0,0,0,5.71,4.08,1.55,1.55,0,0,0,.37-.35c.41-.76,1.09-.75,1.81-.7.4,0,.41.18.23.47a5.57,5.57,0,0,1-3.22,2.61,5.17,5.17,0,0,1-3.09-9.87,5.24,5.24,0,0,1,6.41,2.64c.16.27.1.39-.21.39Z"/><path class="cls-1" d="M110,51.12V48.65c0-.08,0-.22,0-.24a1.72,1.72,0,0,1,1.16-.09c.32,0,.38.31.35.58a40.25,40.25,0,0,0,0,4.11,3.3,3.3,0,0,0,3.32,3.48A3.33,3.33,0,0,0,118.27,53c0-1.46.07-2.92,0-4.37,0-.08,0-.22,0-.24a1.76,1.76,0,0,1,1.11-.12.45.45,0,0,1,.41.54c-.2,1.5,0,3-.12,4.5a4.77,4.77,0,0,1-9.51.18C110.09,52.79,110.07,52.05,110,51.12Z"/><path class="cls-1" d="M85.41,54.88v2.34c0,.62-.16.72-.9.69-.49,0-.58-.2-.57-.71.07-1.86,0-3.72.06-5.57,0-.89,0-1.78,0-2.67a4.75,4.75,0,0,1,4.73-4.73c1.12,0,2.24,0,3.36,0,.56,0,.81.22.81.79s-.38.67-.85.62a27.88,27.88,0,0,0-3.42,0,3.27,3.27,0,0,0-3.24,3.23c0,1.44,0,1.42,1.36,1.52a7,7,0,0,0,1.45,0c.39,0,.57.05.53.46a3.62,3.62,0,0,0,0,.57c0,.34-.14.41-.47.4-.76,0-1.52,0-2.28,0-.44,0-.62.19-.59.61v2.54Z"/><path class="cls-1" d="M23.11,31.27c.75.11,1.5.24,2.25.33a8.92,8.92,0,0,0,4.26-.32c.49-.18.61.08.64.48a12,12,0,0,0,1.09,4.4,8,8,0,0,0,3.21,3.58A1.37,1.37,0,0,1,35.3,41c0,.54-.19.7-.71.54a8,8,0,0,1-2.24-1.16,12.39,12.39,0,0,1-4.64-6.19,2.48,2.48,0,0,0-2.28-1.86,5.66,5.66,0,0,1-2.38-.87Z"/><path class="cls-1" d="M101.24,22.41a23.64,23.64,0,0,0,.08,3.17c0,.14,0,.28-.13.32a4.16,4.16,0,0,1-1.45,0c-.17,0-.09-.19-.08-.31.21-2.32.06-4.64.08-7,0-.65-.54-.49-.94-.55s-.69.31-.79,0a3.75,3.75,0,0,1,0-1.38c0-.21.23-.11.37-.1,1.11.15,1.27.08,1.6-1a5.08,5.08,0,0,1,4-3.68c.3-.06.66-.21.87.13a1.85,1.85,0,0,1,.1,1.23c0,.17-.19.11-.32.11A3.5,3.5,0,0,0,101.4,16c-.14.53,0,.7.55.71l.19,0c.9-.07.88-.07.9.82,0,.52,0,.85-.71.63s-1,.11-1.08.83C101.22,20,101.24,21,101.24,22.41Z"/><path class="cls-1" d="M106,15.55c.46-.06.9-.05.64.71-.06.17-.11.45.12.58s.33-.12.47-.23a4.78,4.78,0,0,1,2.44-1c.47-.05.72.15.65.6s.35.92-.51.93a3.58,3.58,0,0,0-3.16,3.48,36,36,0,0,0,0,4.87c0,.33-.09.42-.37.43a4.17,4.17,0,0,1-.5,0c-.77,0-.72,0-.68-.74.06-.95,0-1.9,0-2.85V16.86a4.34,4.34,0,0,0,0-.51C105.08,15.58,105.08,15.58,106,15.55Z"/><path class="cls-1" d="M104.21,57.86c-.63.2-.63-.18-.6-.69.14-2.67,0-5.35,0-8,0-.54.09-.89.76-.85.51,0,.9,0,.67.71,0,.14-.07.36.12.45s.27-.09.38-.17a5.1,5.1,0,0,1,2.2-.92c.36,0,.68,0,.68.44s.24.89-.47,1c-2.06.4-2.91,1.46-2.92,3.56,0,1.22,0,2.44,0,3.67C105.08,57.87,105.08,57.87,104.21,57.86Z"/><path class="cls-1" d="M70.62,57.62a19.88,19.88,0,0,0,.46-3.95.41.41,0,0,1,.53-.41A1.23,1.23,0,0,0,73,53a3.53,3.53,0,0,0,1.26-2.13c0-.16-.12-.38.09-.45s.32.17.43.32a8.1,8.1,0,0,1,.42.7c.24.44.56.87-.11,1.25-.17.1-.21.4-.29.62a47.87,47.87,0,0,1-2.11,4.88,1.28,1.28,0,0,1-.69.7C71.16,59.17,70.62,58.72,70.62,57.62Z"/><path class="cls-1" d="M112.3,21.39c0-2.13,0-3.65,0-5.17,0-.51.18-.69.66-.66h.38c.45,0,.77,0,.53.61a1.86,1.86,0,0,0,0,.63v8a1.62,1.62,0,0,1,0,.44c-.07.25.37.6,0,.7a2.37,2.37,0,0,1-1.44-.05c-.13-.05-.11-.21-.09-.34C112.41,24,112.26,22.37,112.3,21.39Z"/><path class="cls-1" d="M12.13,14.49c.34.48.22,1.18.67,1.55s1.11,0,1.69.23c-.07.34-.37.46-.6.58a1,1,0,0,0-.53,1.45c.1.25.39.62.12.79s-.53-.19-.73-.39a.88.88,0,0,0-1.42,0,1.56,1.56,0,0,1-.8.44,1.84,1.84,0,0,1,.24-1A.79.79,0,0,0,10.43,17a2,2,0,0,1-.74-.72,1.19,1.19,0,0,1,.9-.1.92.92,0,0,0,1.13-.82A1.21,1.21,0,0,1,12.13,14.49Z"/><path class="cls-1" d="M10.62,30.34a2.63,2.63,0,0,1,.25-1.18.88.88,0,0,0-.41-1.24,3.46,3.46,0,0,1-.47-.31.42.42,0,0,1-.14-.26c0-.13.16-.14.25-.12,1.21.24,1.68-.42,1.87-1.47,0-.07.08-.13.24-.37.2,1.42.79,2.23,2.33,1.75a1.68,1.68,0,0,1-.87.88.73.73,0,0,0-.33,1,2,2,0,0,1,.18,1.21C12.57,29,11.61,29.15,10.62,30.34Z"/><path class="cls-1" d="M14.59,35.73a1.46,1.46,0,0,0,1.86-1.23c.18,1,.64,1.49,1.69,1.43-.82.48-1.29,1-.79,2.08a1.45,1.45,0,0,0-2.26-.11C15.51,37,15.57,36.28,14.59,35.73Z"/><path class="cls-1" d="M18.5,7.48c-.67,1-.67,1.11-.09,2.2-.77-.32-1.45-.37-2,.45a1.62,1.62,0,0,0-1.23-1.72c1-.1,1.26-.76,1.28-1.65A1.42,1.42,0,0,0,18.5,7.48Z"/><path class="cls-1" d="M26.56,4.38a1.11,1.11,0,0,0-.27,1.56c-.59-.21-1-.5-1.54-.18-.16.09-.25,0-.21-.19A1.51,1.51,0,0,0,24,4.25c.59-.07,1.16-.07,1.31-.89C25.66,3.92,25.89,4.41,26.56,4.38Z"/><path class="cls-1" d="M22.5,42.36a1.14,1.14,0,0,0-1.44,0c.18-.55.27-1-.25-1.4.53-.12,1-.23,1.19-.74a1.35,1.35,0,0,0,1.06.89C22.72,41.46,22.37,41.79,22.5,42.36Z"/><path class="cls-1" d="M31.83,4.1A1.46,1.46,0,0,0,33,3.37a1.24,1.24,0,0,0,1,1,1.17,1.17,0,0,0-.58,1.2c-.47-.2-.85-.5-1.39-.09C32.16,4.89,32.23,4.48,31.83,4.1Z"/><path class="cls-1" d="M113.14,14.83c-.45,0-.71-.22-.71-.66a.62.62,0,0,1,.63-.72.64.64,0,0,1,.73.69A.66.66,0,0,1,113.14,14.83Z"/><path class="cls-1" d="M39.17,5.18a1.25,1.25,0,0,0,.79.67c-.28.29-.54.52-.44,1-.36-.38-.88-.07-1.05-.42C38.16,5.82,38.59,5.44,39.17,5.18Z"/><path class="cls-1" d="M27.72,42.43c.49.23.78.61.53,1.11a.64.64,0,0,1-.77,0c-.12-.14-.48-.4-.27-.65A4.81,4.81,0,0,1,27.72,42.43Z"/><path class="cls-2" d="M51.24,15.35a8.19,8.19,0,0,1,.14,1.39l-.22.49c0-.49,0-1-.09-1.47C51.05,15.58,51.05,15.43,51.24,15.35Z"/><path class="cls-3" d="M33,42.55a.27.27,0,0,1-.26.25c-.14,0-.25-.07-.25-.22a.25.25,0,0,1,.29-.26A.23.23,0,0,1,33,42.55Z"/><path class="cls-1" d="M97.93,43.73c-.69-.74-1.37-1.49-2.1-2.2-.41-.4-.47-.72-.07-1.18a7.64,7.64,0,0,0,1.45-2.58A8.15,8.15,0,0,0,82,32a7.85,7.85,0,0,0,1.8,9.17c2.2,2.06,6,2.79,8.39,1.63,1.27-.6,1.5-.59,2.35.53.58.77,1.22,1.27,2.08,1h1c.16,0,.38,0,.47-.12S98.06,43.86,97.93,43.73ZM94.07,38.5c-.36.54-.5.56-.87.06a2.49,2.49,0,0,0-2.55-1.05c-.41.06-1.06-.17-1.17.13s.45.66.73,1,.76.84,1.15,1.27.47.66-.27.9a5.56,5.56,0,0,1-6.81-3.24,5.76,5.76,0,0,1,4.82-8A5.64,5.64,0,0,1,95,35.32,5.79,5.79,0,0,1,94.07,38.5Z"/><path class="cls-1" d="M95.69,25.09a2.17,2.17,0,0,0,0-.51V20.46h0c0-1.43,0-2.87,0-4.31a5.15,5.15,0,0,0-10.3.13q0,4.35,0,8.68c0,.33-.42.74,0,1a2.7,2.7,0,0,0,1.07,0c.31,0,.41-.12.39-.47-.05-1.1,0-2.2-.06-3.29,0-.49.18-.69.67-.69h6.09c.47,0,.71.16.69.66a26.79,26.79,0,0,1-.06,3.23c0,.18-.1.43.15.48a2.21,2.21,0,0,0,1.37,0C96.06,25.73,95.63,25.37,95.69,25.09Zm-1.43-5.64c0,.47-.34.57-.74.57h-3v0H87.57c-.44,0-.77-.14-.76-.64a25.43,25.43,0,0,1,.1-3.6,3.6,3.6,0,0,1,3.62-3.16,3.64,3.64,0,0,1,3.65,3.14A23.66,23.66,0,0,1,94.26,19.45Z"/><path class="cls-1" d="M138.65,25.51a20.89,20.89,0,0,1-.09-2.72c0-.81,0-1.57,0-2.33a5.1,5.1,0,0,0-4-4.76A5.17,5.17,0,0,0,130,24.62a5.1,5.1,0,0,0,6.58.24c.13-.1.24-.28.43-.18s.16.33.14.51a2.07,2.07,0,0,1-.1.43c-.07.22,0,.33.23.34s.71,0,1.07,0S138.71,25.78,138.65,25.51Zm-5.26-1.07a3.68,3.68,0,0,1,0-7.36,3.68,3.68,0,1,1,0,7.36Z"/><path class="cls-1" d="M96.68,48.31a4.79,4.79,0,0,0,0,9.57,4.79,4.79,0,0,0,0-9.57Zm0,8.18a3.4,3.4,0,1,1,3.43-3.34A3.43,3.43,0,0,1,96.69,56.49Z"/></svg>